<svg xmlns="http://www.w3.org/2000/svg" xmlns:xlink="http://www.w3.org/1999/xlink" width="500" zoomAndPan="magnify" viewBox="0 0 375 374.999991" height="500" preserveAspectRatio="xMidYMid meet" version="1.0"><defs><clipPath id="b6b6574dc8"><path d="M 110 261 L 167 261 L 167 311.21875 L 110 311.21875 Z M 110 261 " clip-rule="nonzero"/></clipPath><clipPath id="88ad776822"><path d="M 208 261 L 265 261 L 265 311.21875 L 208 311.21875 Z M 208 261 " clip-rule="nonzero"/></clipPath></defs><path fill="#ffffff" d="M 93.851562 307.328125 C 92.183594 307.328125 90.539062 306.546875 89.5 305.082031 C 76.710938 287.066406 80.953125 262.003906 98.957031 249.207031 C 107.683594 243.007812 118.296875 240.578125 128.84375 242.367188 C 139.394531 244.152344 148.613281 249.941406 154.8125 258.667969 C 156.515625 261.070312 155.953125 264.398438 153.554688 266.105469 C 151.15625 267.808594 147.824219 267.246094 146.121094 264.84375 C 141.574219 258.441406 134.808594 254.191406 127.066406 252.878906 C 119.324219 251.566406 111.535156 253.351562 105.128906 257.902344 C 91.917969 267.292969 88.804688 285.6875 98.191406 298.90625 C 99.894531 301.304688 99.332031 304.632812 96.933594 306.339844 C 95.996094 307.007812 94.917969 307.328125 93.851562 307.328125 Z M 93.851562 307.328125 " fill-opacity="1" fill-rule="nonzero"/><g clip-path="url(#b6b6574dc8)"><path fill="#ffffff" d="M 120.816406 311.207031 C 119.148438 311.207031 117.507812 310.425781 116.46875 308.964844 C 111.796875 302.386719 109.964844 294.382812 111.3125 286.429688 C 112.65625 278.476562 117.019531 271.523438 123.59375 266.855469 C 137.160156 257.210938 156.046875 260.410156 165.6875 273.984375 C 167.390625 276.386719 166.828125 279.714844 164.429688 281.417969 C 162.027344 283.125 158.699219 282.5625 156.996094 280.160156 C 150.757812 271.378906 138.546875 269.308594 129.769531 275.546875 C 125.515625 278.570312 122.691406 283.066406 121.824219 288.210938 C 120.953125 293.355469 122.136719 298.53125 125.15625 302.785156 C 126.859375 305.1875 126.296875 308.515625 123.898438 310.222656 C 122.960938 310.886719 121.882812 311.207031 120.816406 311.207031 Z M 120.816406 311.207031 " fill-opacity="1" fill-rule="nonzero"/></g><path fill="#ffffff" d="M 281.0625 307.328125 C 279.996094 307.328125 278.917969 307.007812 277.980469 306.339844 C 275.582031 304.636719 275.015625 301.304688 276.722656 298.90625 C 286.105469 285.6875 282.992188 267.292969 269.777344 257.902344 C 256.5625 248.511719 238.175781 251.625 228.789062 264.84375 C 227.082031 267.246094 223.757812 267.808594 221.355469 266.105469 C 218.957031 264.398438 218.394531 261.070312 220.097656 258.667969 C 232.890625 240.65625 257.941406 236.410156 275.949219 249.207031 C 293.957031 262 298.203125 287.066406 285.414062 305.082031 C 284.375 306.546875 282.730469 307.328125 281.0625 307.328125 Z M 281.0625 307.328125 " fill-opacity="1" fill-rule="nonzero"/><g clip-path="url(#88ad776822)"><path fill="#ffffff" d="M 254.089844 311.207031 C 253.023438 311.207031 251.945312 310.886719 251.007812 310.222656 C 248.609375 308.515625 248.046875 305.1875 249.75 302.785156 C 252.769531 298.53125 253.957031 293.355469 253.082031 288.210938 C 252.214844 283.066406 249.390625 278.570312 245.140625 275.546875 C 240.886719 272.527344 235.707031 271.34375 230.570312 272.214844 C 225.425781 273.085938 220.929688 275.90625 217.910156 280.164062 C 216.207031 282.5625 212.878906 283.128906 210.476562 281.421875 C 208.078125 279.714844 207.515625 276.386719 209.21875 273.984375 C 213.890625 267.410156 220.839844 263.046875 228.789062 261.699219 C 236.738281 260.351562 244.738281 262.183594 251.3125 266.855469 C 257.886719 271.527344 262.25 278.480469 263.59375 286.433594 C 264.941406 294.386719 263.109375 302.386719 258.4375 308.964844 C 257.402344 310.425781 255.761719 311.207031 254.089844 311.207031 Z M 254.089844 311.207031 " fill-opacity="1" fill-rule="nonzero"/></g><path fill="#ffffff" d="M 67.585938 213.691406 L 67.660156 213.96875 L 67.777344 214.382812 L 68.007812 215.214844 L 68.472656 216.882812 C 68.804688 217.992188 69.128906 219.105469 69.457031 220.21875 C 70.074219 222.460938 69.964844 225.824219 71.765625 226.785156 C 212.886719 302.011719 142.933594 210.648438 142.933594 210.648438 L 141.804688 210.984375 L 141.316406 211.128906 L 141.078125 211.203125 C 140.988281 211.230469 141.039062 211.199219 141.007812 211.199219 C 140.964844 211.171875 140.917969 211.152344 140.882812 211.136719 C 140.800781 211.105469 140.726562 211.097656 140.65625 211.109375 C 140.613281 211.117188 140.578125 211.128906 140.542969 211.148438 L 140.484375 211.179688 L 140.285156 211.171875 C 140.019531 211.171875 139.753906 211.171875 139.476562 211.191406 C 139.210938 211.203125 138.941406 211.230469 138.671875 211.265625 C 138.40625 211.257812 138.136719 211.195312 137.867188 211.179688 C 135.730469 211.039062 133.570312 210.558594 131.578125 209.507812 C 129.582031 208.476562 127.742188 207.054688 126.152344 205.371094 C 125.320312 204.574219 124.683594 203.570312 123.960938 202.667969 C 123.679688 202.140625 123.375 201.640625 123.046875 201.164062 C 122.734375 200.667969 122.546875 200.082031 122.25 199.578125 C 121.929688 199.089844 121.773438 198.488281 121.558594 197.933594 C 121.34375 197.375 121.058594 196.859375 120.949219 196.234375 C 120.875 195.9375 120.789062 195.644531 120.699219 195.355469 L 120.558594 194.921875 L 120.480469 194.707031 L 91.1875 191.972656 L 119.523438 116.203125 L 72.660156 118.382812 L 117.066406 78.113281 C 89.175781 63.785156 30.449219 86.167969 40.730469 162.273438 C 44.9375 193.441406 67.585938 213.691406 67.585938 213.691406 Z M 67.585938 213.691406 " fill-opacity="1" fill-rule="nonzero"/><path fill="#ffffff" d="M 148.355469 261.824219 C 148.351562 261.824219 148.347656 261.824219 148.34375 261.824219 C 133.414062 261.820312 107.542969 251.898438 69.257812 231.492188 C 65.628906 229.554688 64.988281 225.550781 64.601562 223.160156 C 64.507812 222.585938 64.414062 221.988281 64.316406 221.636719 L 64.21875 221.3125 C 63.9375 220.34375 63.652344 219.378906 63.363281 218.417969 L 62.847656 216.546875 C 57.886719 211.707031 39.351562 191.902344 35.449219 162.984375 C 30.328125 125.054688 41.964844 102.542969 52.628906 90.332031 C 64.460938 76.789062 81.738281 68.703125 98.839844 68.703125 C 106.417969 68.703125 113.566406 70.316406 119.503906 73.367188 C 121.0625 74.167969 122.125 75.679688 122.355469 77.414062 C 122.582031 79.148438 121.945312 80.886719 120.652344 82.0625 L 87.234375 112.367188 L 119.277344 110.875 C 121.058594 110.789062 122.777344 111.613281 123.832031 113.0625 C 124.886719 114.507812 125.144531 116.390625 124.515625 118.070312 L 98.625 187.3125 L 120.980469 189.398438 C 123.023438 189.589844 124.777344 190.941406 125.488281 192.867188 L 125.566406 193.082031 C 125.589844 193.152344 125.613281 193.21875 125.636719 193.285156 L 125.777344 193.722656 C 125.902344 194.125 126.015625 194.511719 126.117188 194.90625 C 126.136719 194.980469 126.152344 195.058594 126.167969 195.132812 C 126.199219 195.210938 126.234375 195.289062 126.269531 195.367188 C 126.359375 195.578125 126.449219 195.792969 126.535156 196.011719 C 126.613281 196.214844 126.683594 196.410156 126.75 196.605469 C 126.78125 196.691406 126.808594 196.777344 126.84375 196.867188 C 126.84375 196.867188 126.84375 196.871094 126.847656 196.871094 C 127.078125 197.265625 127.28125 197.6875 127.476562 198.113281 C 127.507812 198.1875 127.542969 198.265625 127.578125 198.335938 C 127.875 198.785156 128.160156 199.25 128.425781 199.71875 C 128.589844 199.933594 128.75 200.148438 128.910156 200.363281 C 129.261719 200.835938 129.597656 201.285156 129.84375 201.519531 C 129.910156 201.582031 129.972656 201.648438 130.035156 201.714844 C 131.226562 202.976562 132.605469 204.035156 134.027344 204.765625 C 135.210938 205.394531 136.605469 205.75 138.210938 205.855469 C 138.355469 205.863281 138.515625 205.878906 138.679688 205.898438 C 138.855469 205.882812 139.027344 205.871094 139.199219 205.863281 C 139.398438 205.851562 139.613281 205.84375 139.832031 205.839844 C 140.082031 205.800781 140.375 205.773438 140.628906 205.769531 L 141.410156 205.535156 C 143.527344 204.902344 145.820312 205.644531 147.167969 207.402344 C 151.210938 212.683594 171.046875 239.757812 164.074219 253.882812 C 162.285156 257.507812 158.105469 261.824219 148.355469 261.824219 Z M 75.332031 222.640625 C 119.667969 246.1875 139.507812 251.15625 148.347656 251.160156 C 148.347656 251.160156 148.351562 251.160156 148.355469 251.160156 C 150.714844 251.160156 153.699219 250.8125 154.515625 249.164062 C 157.160156 243.800781 148.648438 227.675781 140.660156 216.53125 C 140.578125 216.527344 140.496094 216.519531 140.414062 216.511719 C 140.371094 216.511719 140.332031 216.507812 140.289062 216.507812 L 140.175781 216.503906 C 140.003906 216.5 139.898438 216.503906 139.800781 216.511719 C 139.644531 216.519531 139.53125 216.527344 139.414062 216.546875 C 139.097656 216.589844 138.78125 216.605469 138.457031 216.59375 C 138.148438 216.582031 137.835938 216.546875 137.527344 216.503906 L 137.5625 216.5 C 134.40625 216.296875 131.566406 215.53125 129.089844 214.222656 C 126.65625 212.964844 124.378906 211.242188 122.363281 209.121094 C 121.527344 208.300781 120.882812 207.4375 120.363281 206.742188 C 120.179688 206.496094 119.996094 206.25 119.804688 206.011719 C 119.597656 205.75 119.414062 205.472656 119.257812 205.179688 C 119.070312 204.828125 118.871094 204.496094 118.648438 204.171875 C 118.617188 204.125 118.582031 204.074219 118.550781 204.023438 C 118.183594 203.445312 117.941406 202.910156 117.765625 202.519531 C 117.726562 202.441406 117.691406 202.359375 117.652344 202.28125 C 117.152344 201.453125 116.875 200.667969 116.691406 200.132812 L 116.523438 199.695312 L 90.695312 197.28125 C 89.039062 197.128906 87.554688 196.210938 86.671875 194.804688 C 85.789062 193.394531 85.613281 191.660156 86.195312 190.105469 L 111.699219 121.902344 L 72.910156 123.707031 C 70.636719 123.816406 68.59375 122.492188 67.734375 120.414062 C 66.875 118.335938 67.414062 115.941406 69.082031 114.429688 L 106.867188 80.167969 C 104.328125 79.640625 101.632812 79.367188 98.839844 79.367188 C 84.769531 79.367188 70.492188 86.089844 60.65625 97.351562 C 51.445312 107.894531 41.425781 127.59375 46.015625 161.558594 C 49.914062 190.441406 70.925781 209.527344 71.136719 209.714844 C 71.914062 210.410156 72.472656 211.320312 72.738281 212.328125 L 73.605469 215.460938 C 73.871094 216.335938 74.160156 217.320312 74.449219 218.308594 L 74.570312 218.714844 C 74.847656 219.714844 74.996094 220.644531 75.128906 221.464844 C 75.183594 221.8125 75.257812 222.265625 75.332031 222.640625 Z M 75.332031 222.640625 " fill-opacity="1" fill-rule="nonzero"/><path fill="#ffffff" d="M 307.324219 213.691406 L 307.253906 213.96875 L 307.132812 214.382812 L 306.902344 215.214844 L 306.4375 216.882812 C 306.105469 217.992188 305.78125 219.105469 305.457031 220.21875 C 304.84375 222.460938 304.953125 225.824219 303.148438 226.785156 C 162.019531 302.011719 231.976562 210.648438 231.976562 210.648438 L 233.109375 210.984375 L 233.589844 211.128906 L 233.828125 211.203125 C 233.921875 211.230469 233.875 211.199219 233.902344 211.199219 C 233.949219 211.171875 233.988281 211.152344 234.027344 211.136719 C 234.113281 211.105469 234.183594 211.097656 234.257812 211.109375 C 234.292969 211.117188 234.332031 211.128906 234.363281 211.148438 L 234.421875 211.179688 L 234.621094 211.171875 C 234.890625 211.171875 235.15625 211.171875 235.429688 211.191406 C 235.699219 211.203125 235.96875 211.230469 236.234375 211.265625 C 236.503906 211.257812 236.773438 211.195312 237.042969 211.179688 C 239.175781 211.039062 241.339844 210.558594 243.332031 209.507812 C 245.328125 208.476562 247.167969 207.054688 248.753906 205.371094 C 249.585938 204.574219 250.222656 203.570312 250.949219 202.667969 C 251.230469 202.140625 251.535156 201.640625 251.863281 201.164062 C 252.171875 200.667969 252.359375 200.082031 252.660156 199.578125 C 252.976562 199.089844 253.132812 198.488281 253.351562 197.933594 C 253.5625 197.375 253.851562 196.859375 253.960938 196.234375 C 254.035156 195.9375 254.117188 195.644531 254.210938 195.355469 L 254.347656 194.921875 L 254.421875 194.707031 L 283.722656 191.972656 L 255.382812 116.203125 L 302.25 118.382812 L 257.839844 78.113281 C 285.730469 63.785156 344.453125 86.167969 334.175781 162.273438 C 329.972656 193.441406 307.324219 213.691406 307.324219 213.691406 Z M 307.324219 213.691406 " fill-opacity="1" fill-rule="nonzero"/><path fill="#ffffff" d="M 226.566406 261.824219 C 216.804688 261.824219 212.625 257.503906 210.835938 253.878906 C 203.867188 239.753906 223.699219 212.683594 227.746094 207.402344 C 229.09375 205.644531 231.382812 204.90625 233.5 205.535156 L 234.285156 205.769531 C 234.539062 205.773438 234.828125 205.800781 235.082031 205.839844 C 235.304688 205.84375 235.53125 205.851562 235.753906 205.863281 C 235.90625 205.871094 236.066406 205.882812 236.230469 205.898438 C 236.410156 205.878906 236.570312 205.863281 236.730469 205.855469 C 238.304688 205.75 239.699219 205.394531 240.839844 204.789062 C 242.304688 204.035156 243.683594 202.976562 244.871094 201.714844 C 244.933594 201.648438 245 201.585938 245.066406 201.519531 C 245.3125 201.285156 245.644531 200.835938 245.996094 200.363281 C 246.160156 200.148438 246.320312 199.933594 246.484375 199.71875 C 246.753906 199.242188 247.039062 198.777344 247.34375 198.328125 C 247.355469 198.292969 247.386719 198.214844 247.421875 198.140625 C 247.570312 197.8125 247.773438 197.363281 248.0625 196.875 C 248.09375 196.789062 248.125 196.699219 248.15625 196.613281 C 248.226562 196.40625 248.300781 196.199219 248.378906 196 C 248.453125 195.800781 248.550781 195.570312 248.652344 195.339844 C 248.679688 195.273438 248.710938 195.203125 248.738281 195.132812 C 248.753906 195.0625 248.769531 194.992188 248.789062 194.921875 C 248.886719 194.527344 249 194.144531 249.121094 193.761719 L 249.265625 193.296875 C 249.285156 193.242188 249.304688 193.183594 249.324219 193.128906 L 249.398438 192.914062 C 250.097656 190.960938 251.859375 189.589844 253.925781 189.398438 L 276.285156 187.308594 L 250.386719 118.066406 C 249.761719 116.390625 250.015625 114.507812 251.074219 113.058594 C 252.125 111.609375 253.832031 110.785156 255.628906 110.871094 L 287.675781 112.363281 L 254.257812 82.058594 C 252.960938 80.886719 252.324219 79.148438 252.554688 77.414062 C 252.78125 75.679688 253.847656 74.164062 255.402344 73.363281 C 261.34375 70.316406 268.488281 68.703125 276.070312 68.703125 C 293.171875 68.703125 310.445312 76.789062 322.277344 90.332031 C 332.941406 102.539062 344.578125 125.050781 339.457031 162.984375 C 335.558594 191.898438 317.023438 211.703125 312.0625 216.542969 L 311.570312 218.316406 C 311.285156 219.269531 311.035156 220.128906 310.78125 220.996094 L 310.570312 221.714844 C 310.5 221.972656 310.40625 222.5625 310.3125 223.136719 C 309.929688 225.539062 309.289062 229.554688 305.648438 231.488281 C 267.363281 251.902344 241.492188 261.824219 226.566406 261.824219 Z M 234.246094 216.53125 C 225.335938 228.914062 217.953125 244.210938 220.398438 249.160156 C 221.214844 250.8125 224.203125 251.160156 226.566406 251.160156 C 235.398438 251.160156 255.234375 246.195312 299.585938 222.640625 C 299.660156 222.261719 299.734375 221.808594 299.789062 221.457031 C 299.917969 220.640625 300.066406 219.722656 300.316406 218.8125 L 300.550781 218 C 300.808594 217.117188 301.066406 216.234375 301.328125 215.355469 L 302.15625 212.390625 C 302.414062 211.355469 302.976562 210.425781 303.769531 209.714844 C 303.976562 209.53125 325.019531 190.296875 328.890625 161.558594 C 333.480469 127.59375 323.460938 107.894531 314.25 97.351562 C 304.414062 86.089844 290.140625 79.371094 276.070312 79.371094 C 273.277344 79.371094 270.582031 79.640625 268.046875 80.167969 L 305.828125 114.429688 C 307.496094 115.941406 308.035156 118.335938 307.179688 120.414062 C 306.320312 122.492188 304.269531 123.816406 302.003906 123.707031 L 263.207031 121.902344 L 288.714844 190.101562 C 289.296875 191.660156 289.121094 193.394531 288.238281 194.804688 C 287.355469 196.210938 285.871094 197.125 284.214844 197.28125 L 258.386719 199.695312 C 258.367188 199.738281 258.347656 199.785156 258.332031 199.832031 L 258.207031 200.167969 C 258.019531 200.703125 257.742188 201.492188 257.234375 202.316406 C 257.214844 202.363281 257.175781 202.453125 257.136719 202.542969 C 256.964844 202.917969 256.734375 203.429688 256.386719 203.988281 C 256.339844 204.0625 256.292969 204.132812 256.246094 204.203125 C 256.03125 204.511719 255.835938 204.828125 255.65625 205.171875 C 255.496094 205.46875 255.3125 205.75 255.101562 206.015625 C 254.910156 206.25 254.726562 206.5 254.539062 206.746094 C 254.023438 207.441406 253.382812 208.304688 252.546875 209.121094 C 250.535156 211.242188 248.253906 212.964844 245.777344 214.246094 C 243.355469 215.523438 240.539062 216.289062 237.441406 216.496094 C 237.058594 216.550781 236.753906 216.582031 236.449219 216.59375 C 236.128906 216.609375 235.804688 216.59375 235.488281 216.546875 C 235.375 216.53125 235.265625 216.523438 235.152344 216.515625 C 234.996094 216.507812 234.898438 216.503906 234.796875 216.503906 L 234.621094 216.511719 C 234.578125 216.511719 234.535156 216.511719 234.496094 216.515625 C 234.414062 216.519531 234.332031 216.527344 234.246094 216.53125 Z M 234.246094 216.53125 " fill-opacity="1" fill-rule="nonzero"/><path fill="#ffffff" d="M 270.691406 235.484375 C 270.691406 236.546875 270.65625 237.609375 270.589844 238.671875 C 270.523438 239.734375 270.421875 240.792969 270.289062 241.847656 C 270.15625 242.90625 269.988281 243.960938 269.789062 245.011719 C 269.589844 246.0625 269.355469 247.109375 269.089844 248.152344 C 268.824219 249.195312 268.527344 250.230469 268.195312 251.261719 C 267.863281 252.292969 267.5 253.316406 267.105469 254.332031 C 266.710938 255.351562 266.285156 256.359375 265.824219 257.359375 C 265.367188 258.359375 264.875 259.351562 264.355469 260.332031 C 263.832031 261.3125 263.28125 262.285156 262.699219 263.246094 C 262.117188 264.207031 261.503906 265.15625 260.863281 266.09375 C 260.21875 267.03125 259.546875 267.953125 258.847656 268.867188 C 258.148438 269.777344 257.417969 270.675781 256.664062 271.558594 C 255.90625 272.441406 255.121094 273.308594 254.308594 274.164062 C 253.5 275.015625 252.660156 275.855469 251.796875 276.675781 C 250.933594 277.496094 250.042969 278.300781 249.128906 279.089844 C 248.214844 279.875 247.273438 280.644531 246.3125 281.398438 C 245.347656 282.148438 244.363281 282.878906 243.351562 283.59375 C 242.34375 284.308594 241.3125 285 240.257812 285.675781 C 239.207031 286.351562 238.132812 287.003906 237.039062 287.636719 C 235.945312 288.269531 234.832031 288.882812 233.699219 289.472656 C 232.566406 290.0625 231.414062 290.628906 230.246094 291.175781 C 229.078125 291.722656 227.894531 292.246094 226.691406 292.746094 C 225.492188 293.246094 224.273438 293.726562 223.042969 294.179688 C 221.8125 294.632812 220.566406 295.066406 219.308594 295.472656 C 218.050781 295.878906 216.78125 296.261719 215.496094 296.617188 C 214.214844 296.976562 212.921875 297.308594 211.617188 297.617188 C 210.3125 297.925781 209 298.210938 207.679688 298.46875 C 206.359375 298.726562 205.03125 298.957031 203.695312 299.167969 C 202.359375 299.375 201.015625 299.554688 199.667969 299.710938 C 198.320312 299.867188 196.96875 299.996094 195.613281 300.101562 C 194.257812 300.207031 192.902344 300.285156 191.539062 300.335938 C 190.179688 300.386719 188.816406 300.414062 187.457031 300.414062 C 186.09375 300.414062 184.734375 300.386719 183.371094 300.335938 C 182.011719 300.285156 180.652344 300.207031 179.296875 300.101562 C 177.941406 299.996094 176.589844 299.867188 175.242188 299.710938 C 173.894531 299.554688 172.554688 299.375 171.21875 299.167969 C 169.882812 298.957031 168.554688 298.726562 167.230469 298.46875 C 165.910156 298.210938 164.597656 297.925781 163.292969 297.617188 C 161.992188 297.308594 160.699219 296.976562 159.414062 296.617188 C 158.132812 296.261719 156.863281 295.878906 155.605469 295.472656 C 154.34375 295.066406 153.101562 294.632812 151.867188 294.179688 C 150.636719 293.726562 149.421875 293.246094 148.21875 292.746094 C 147.019531 292.246094 145.832031 291.722656 144.664062 291.175781 C 143.496094 290.628906 142.347656 290.0625 141.214844 289.472656 C 140.082031 288.882812 138.96875 288.269531 137.875 287.636719 C 136.78125 287.003906 135.707031 286.351562 134.652344 285.675781 C 133.601562 285 132.570312 284.308594 131.558594 283.59375 C 130.550781 282.878906 129.5625 282.148438 128.601562 281.398438 C 127.636719 280.644531 126.699219 279.875 125.785156 279.089844 C 124.867188 278.300781 123.980469 277.496094 123.113281 276.675781 C 122.25 275.855469 121.414062 275.015625 120.601562 274.164062 C 119.789062 273.308594 119.007812 272.441406 118.25 271.558594 C 117.492188 270.675781 116.765625 269.777344 116.0625 268.867188 C 115.363281 267.953125 114.691406 267.03125 114.050781 266.09375 C 113.40625 265.15625 112.796875 264.207031 112.214844 263.246094 C 111.628906 262.285156 111.078125 261.3125 110.558594 260.332031 C 110.035156 259.351562 109.546875 258.359375 109.085938 257.359375 C 108.628906 256.359375 108.203125 255.351562 107.804688 254.332031 C 107.410156 253.316406 107.046875 252.292969 106.714844 251.261719 C 106.386719 250.230469 106.085938 249.195312 105.820312 248.152344 C 105.554688 247.109375 105.324219 246.0625 105.121094 245.011719 C 104.921875 243.960938 104.757812 242.90625 104.621094 241.847656 C 104.488281 240.792969 104.390625 239.734375 104.320312 238.671875 C 104.253906 237.609375 104.222656 236.546875 104.222656 235.484375 C 104.222656 234.421875 104.253906 233.359375 104.320312 232.300781 C 104.390625 231.238281 104.488281 230.179688 104.621094 229.121094 C 104.757812 228.0625 104.921875 227.007812 105.121094 225.957031 C 105.324219 224.90625 105.554688 223.859375 105.820312 222.820312 C 106.085938 221.777344 106.386719 220.738281 106.714844 219.707031 C 107.046875 218.679688 107.410156 217.65625 107.804688 216.636719 C 108.203125 215.621094 108.628906 214.613281 109.085938 213.613281 C 109.546875 212.609375 110.035156 211.621094 110.558594 210.636719 C 111.078125 209.65625 111.628906 208.683594 112.214844 207.726562 C 112.796875 206.765625 113.40625 205.816406 114.050781 204.878906 C 114.691406 203.941406 115.363281 203.015625 116.0625 202.105469 C 116.765625 201.195312 117.492188 200.296875 118.25 199.414062 C 119.007812 198.53125 119.789062 197.660156 120.601562 196.808594 C 121.414062 195.953125 122.25 195.117188 123.113281 194.296875 C 123.980469 193.472656 124.867188 192.667969 125.785156 191.882812 C 126.699219 191.09375 127.636719 190.324219 128.601562 189.574219 C 129.5625 188.824219 130.550781 188.089844 131.558594 187.375 C 132.570312 186.664062 133.601562 185.96875 134.652344 185.292969 C 135.707031 184.621094 136.78125 183.96875 137.875 183.335938 C 138.96875 182.703125 140.082031 182.089844 141.214844 181.5 C 142.347656 180.910156 143.496094 180.339844 144.664062 179.792969 C 145.832031 179.246094 147.019531 178.722656 148.21875 178.222656 C 149.421875 177.722656 150.636719 177.246094 151.867188 176.789062 C 153.101562 176.335938 154.34375 175.90625 155.605469 175.5 C 156.863281 175.09375 158.132812 174.710938 159.414062 174.351562 C 160.699219 173.996094 161.992188 173.660156 163.292969 173.351562 C 164.597656 173.042969 165.910156 172.761719 167.230469 172.503906 C 168.554688 172.246094 169.882812 172.011719 171.21875 171.804688 C 172.554688 171.597656 173.894531 171.414062 175.242188 171.257812 C 176.589844 171.105469 177.941406 170.972656 179.296875 170.871094 C 180.652344 170.765625 182.011719 170.6875 183.371094 170.636719 C 184.734375 170.582031 186.09375 170.558594 187.457031 170.558594 C 188.816406 170.558594 190.179688 170.582031 191.539062 170.636719 C 192.902344 170.6875 194.257812 170.765625 195.613281 170.871094 C 196.96875 170.972656 198.320312 171.105469 199.667969 171.257812 C 201.015625 171.414062 202.359375 171.597656 203.695312 171.804688 C 205.03125 172.011719 206.359375 172.246094 207.679688 172.503906 C 209 172.761719 210.3125 173.042969 211.617188 173.351562 C 212.921875 173.660156 214.214844 173.996094 215.496094 174.351562 C 216.78125 174.710938 218.050781 175.09375 219.308594 175.5 C 220.566406 175.90625 221.8125 176.335938 223.042969 176.789062 C 224.273438 177.246094 225.492188 177.722656 226.691406 178.222656 C 227.894531 178.722656 229.078125 179.246094 230.246094 179.792969 C 231.414062 180.339844 232.566406 180.910156 233.699219 181.5 C 234.832031 182.089844 235.945312 182.703125 237.039062 183.335938 C 238.132812 183.96875 239.207031 184.621094 240.257812 185.292969 C 241.3125 185.96875 242.34375 186.664062 243.351562 187.375 C 244.363281 188.089844 245.347656 188.824219 246.3125 189.574219 C 247.273438 190.324219 248.214844 191.09375 249.128906 191.882812 C 250.042969 192.667969 250.933594 193.472656 251.796875 194.296875 C 252.660156 195.117188 253.5 195.953125 254.308594 196.808594 C 255.121094 197.660156 255.90625 198.53125 256.664062 199.414062 C 257.417969 200.296875 258.148438 201.195312 258.847656 202.105469 C 259.546875 203.015625 260.21875 203.941406 260.863281 204.878906 C 261.503906 205.816406 262.117188 206.765625 262.699219 207.726562 C 263.28125 208.683594 263.832031 209.65625 264.355469 210.636719 C 264.875 211.621094 265.367188 212.609375 265.824219 213.613281 C 266.285156 214.613281 266.710938 215.621094 267.105469 216.636719 C 267.5 217.65625 267.863281 218.679688 268.195312 219.707031 C 268.527344 220.738281 268.824219 221.777344 269.089844 222.820312 C 269.355469 223.859375 269.589844 224.90625 269.789062 225.957031 C 269.988281 227.007812 270.15625 228.0625 270.289062 229.121094 C 270.421875 230.179688 270.523438 231.238281 270.589844 232.300781 C 270.65625 233.359375 270.691406 234.421875 270.691406 235.484375 Z M 270.691406 235.484375 " fill-opacity="1" fill-rule="nonzero"/><path fill="#ffffff" d="M 187.453125 305.746094 C 138.621094 305.746094 98.890625 274.226562 98.890625 235.484375 C 98.890625 196.742188 138.621094 165.222656 187.453125 165.222656 C 236.289062 165.222656 276.019531 196.742188 276.019531 235.484375 C 276.019531 274.226562 236.289062 305.746094 187.453125 305.746094 Z M 187.453125 175.890625 C 144.5 175.890625 109.550781 202.625 109.550781 235.484375 C 109.550781 268.347656 144.5 295.082031 187.453125 295.082031 C 230.414062 295.082031 265.359375 268.347656 265.359375 235.484375 C 265.359375 202.625 230.410156 175.890625 187.453125 175.890625 Z M 187.453125 175.890625 " fill-opacity="1" fill-rule="nonzero"/><path fill="#ffffff" d="M 172.066406 203.261719 L 157.054688 203.261719 C 154.109375 203.261719 151.722656 200.875 151.722656 197.929688 C 151.722656 194.984375 154.109375 192.597656 157.054688 192.597656 L 172.066406 192.597656 C 175.007812 192.597656 177.394531 194.984375 177.394531 197.929688 C 177.394531 200.875 175.007812 203.261719 172.066406 203.261719 Z M 172.066406 203.261719 " fill-opacity="1" fill-rule="nonzero"/><path fill="#ffffff" d="M 217.855469 203.261719 L 202.84375 203.261719 C 199.902344 203.261719 197.515625 200.875 197.515625 197.929688 C 197.515625 194.984375 199.902344 192.597656 202.84375 192.597656 L 217.855469 192.597656 C 220.796875 192.597656 223.183594 194.984375 223.183594 197.929688 C 223.183594 200.875 220.796875 203.261719 217.855469 203.261719 Z M 217.855469 203.261719 " fill-opacity="1" fill-rule="nonzero"/><path fill="#ffffff" d="M 151.765625 267.4375 C 151.765625 267.863281 151.722656 268.285156 151.640625 268.699219 C 151.558594 269.117188 151.433594 269.519531 151.269531 269.914062 C 151.109375 270.304688 150.910156 270.679688 150.671875 271.03125 C 150.433594 271.382812 150.164062 271.710938 149.863281 272.011719 C 149.5625 272.3125 149.234375 272.578125 148.878906 272.816406 C 148.527344 273.050781 148.152344 273.25 147.757812 273.414062 C 147.363281 273.574219 146.957031 273.699219 146.539062 273.78125 C 146.121094 273.863281 145.699219 273.90625 145.273438 273.90625 C 144.847656 273.90625 144.425781 273.863281 144.007812 273.78125 C 143.589844 273.699219 143.183594 273.574219 142.789062 273.414062 C 142.394531 273.25 142.019531 273.050781 141.667969 272.816406 C 141.3125 272.578125 140.984375 272.3125 140.683594 272.011719 C 140.382812 271.710938 140.113281 271.382812 139.875 271.03125 C 139.636719 270.679688 139.4375 270.304688 139.273438 269.914062 C 139.113281 269.519531 138.988281 269.117188 138.90625 268.699219 C 138.824219 268.285156 138.78125 267.863281 138.78125 267.4375 C 138.78125 267.011719 138.824219 266.59375 138.90625 266.175781 C 138.988281 265.761719 139.113281 265.355469 139.273438 264.964844 C 139.4375 264.570312 139.636719 264.199219 139.875 263.84375 C 140.113281 263.492188 140.382812 263.164062 140.683594 262.863281 C 140.984375 262.566406 141.3125 262.296875 141.667969 262.0625 C 142.019531 261.824219 142.394531 261.625 142.789062 261.464844 C 143.183594 261.300781 143.589844 261.179688 144.007812 261.09375 C 144.425781 261.011719 144.847656 260.96875 145.273438 260.96875 C 145.699219 260.96875 146.121094 261.011719 146.539062 261.09375 C 146.957031 261.179688 147.363281 261.300781 147.757812 261.464844 C 148.152344 261.625 148.527344 261.824219 148.878906 262.0625 C 149.234375 262.296875 149.5625 262.566406 149.863281 262.863281 C 150.164062 263.164062 150.433594 263.492188 150.671875 263.84375 C 150.910156 264.199219 151.109375 264.570312 151.269531 264.964844 C 151.433594 265.355469 151.558594 265.761719 151.640625 266.175781 C 151.722656 266.59375 151.765625 267.011719 151.765625 267.4375 Z M 151.765625 267.4375 " fill-opacity="1" fill-rule="nonzero"/><path fill="#ffffff" d="M 138.78125 257.066406 C 138.78125 257.492188 138.738281 257.910156 138.65625 258.328125 C 138.570312 258.742188 138.449219 259.148438 138.285156 259.539062 C 138.121094 259.933594 137.921875 260.304688 137.683594 260.660156 C 137.449219 261.011719 137.179688 261.339844 136.878906 261.636719 C 136.578125 261.9375 136.25 262.207031 135.894531 262.441406 C 135.539062 262.679688 135.164062 262.878906 134.769531 263.039062 C 134.378906 263.203125 133.972656 263.324219 133.554688 263.410156 C 133.136719 263.492188 132.710938 263.53125 132.285156 263.53125 C 131.859375 263.53125 131.4375 263.492188 131.019531 263.410156 C 130.601562 263.324219 130.195312 263.203125 129.800781 263.039062 C 129.40625 262.878906 129.035156 262.679688 128.679688 262.441406 C 128.324219 262.207031 127.996094 261.9375 127.695312 261.636719 C 127.394531 261.339844 127.125 261.011719 126.886719 260.660156 C 126.652344 260.304688 126.449219 259.933594 126.289062 259.539062 C 126.125 259.148438 126 258.742188 125.917969 258.328125 C 125.835938 257.910156 125.792969 257.492188 125.792969 257.066406 C 125.792969 256.640625 125.835938 256.222656 125.917969 255.804688 C 126 255.386719 126.125 254.984375 126.289062 254.589844 C 126.449219 254.199219 126.652344 253.828125 126.886719 253.472656 C 127.125 253.121094 127.394531 252.792969 127.695312 252.492188 C 127.996094 252.195312 128.324219 251.925781 128.679688 251.691406 C 129.035156 251.453125 129.40625 251.253906 129.800781 251.09375 C 130.195312 250.929688 130.601562 250.808594 131.019531 250.722656 C 131.4375 250.640625 131.859375 250.601562 132.285156 250.601562 C 132.710938 250.601562 133.136719 250.640625 133.554688 250.722656 C 133.972656 250.808594 134.378906 250.929688 134.769531 251.09375 C 135.164062 251.253906 135.539062 251.453125 135.894531 251.691406 C 136.25 251.925781 136.578125 252.195312 136.878906 252.492188 C 137.179688 252.792969 137.449219 253.121094 137.683594 253.472656 C 137.921875 253.828125 138.121094 254.199219 138.285156 254.589844 C 138.449219 254.984375 138.570312 255.386719 138.65625 255.804688 C 138.738281 256.222656 138.78125 256.640625 138.78125 257.066406 Z M 138.78125 257.066406 " fill-opacity="1" fill-rule="nonzero"/><path fill="#ffffff" d="M 150.09375 245.546875 C 150.09375 241.976562 147.1875 239.082031 143.601562 239.082031 C 140.011719 239.082031 137.105469 241.976562 137.105469 245.546875 C 137.105469 249.121094 140.011719 252.015625 143.601562 252.015625 C 147.1875 252.015625 150.09375 249.121094 150.09375 245.546875 Z M 150.09375 245.546875 " fill-opacity="1" fill-rule="nonzero"/></svg>