<svg xmlns="http://www.w3.org/2000/svg" xmlns:xlink="http://www.w3.org/1999/xlink" width="500" zoomAndPan="magnify" viewBox="0 0 375 374.999991" height="500" preserveAspectRatio="xMidYMid meet" version="1.0"><defs><clipPath id="ee45910fdd"><path d="M 97 274 L 164 274 L 164 333.050781 L 97 333.050781 Z M 97 274 " clip-rule="nonzero"/></clipPath><clipPath id="a0f0a9d167"><path d="M 212 274 L 278 274 L 278 333.050781 L 212 333.050781 Z M 212 274 " clip-rule="nonzero"/></clipPath></defs><path fill="#666666" d="M 77.554688 328.476562 C 75.59375 328.476562 73.660156 327.558594 72.4375 325.839844 C 57.386719 304.65625 62.378906 275.1875 83.5625 260.140625 C 93.828125 252.855469 106.316406 249.996094 118.730469 252.097656 C 131.140625 254.199219 141.992188 261.007812 149.285156 271.265625 C 151.289062 274.089844 150.625 278.003906 147.800781 280.011719 C 144.980469 282.011719 141.0625 281.351562 139.058594 278.527344 C 133.710938 271 125.746094 266.003906 116.636719 264.460938 C 107.527344 262.917969 98.363281 265.015625 90.828125 270.363281 C 75.28125 281.40625 71.617188 303.03125 82.664062 318.574219 C 84.667969 321.398438 84.003906 325.3125 81.183594 327.316406 C 80.082031 328.101562 78.8125 328.476562 77.554688 328.476562 Z M 77.554688 328.476562 " fill-opacity="1" fill-rule="nonzero"/><g clip-path="url(#ee45910fdd)"><path fill="#666666" d="M 109.285156 333.042969 C 107.324219 333.042969 105.390625 332.121094 104.167969 330.402344 C 98.671875 322.667969 96.519531 313.261719 98.101562 303.910156 C 99.683594 294.558594 104.816406 286.382812 112.554688 280.890625 C 128.515625 269.550781 150.734375 273.3125 162.078125 289.273438 C 164.082031 292.097656 163.421875 296.011719 160.597656 298.015625 C 157.773438 300.023438 153.855469 299.359375 151.855469 296.539062 C 144.515625 286.210938 130.144531 283.777344 119.816406 291.113281 C 114.8125 294.664062 111.492188 299.953125 110.46875 306.003906 C 109.445312 312.054688 110.835938 318.136719 114.390625 323.140625 C 116.394531 325.960938 115.734375 329.875 112.910156 331.882812 C 111.808594 332.664062 110.539062 333.042969 109.285156 333.042969 Z M 109.285156 333.042969 " fill-opacity="1" fill-rule="nonzero"/></g><path fill="#666666" d="M 297.832031 328.476562 C 296.578125 328.476562 295.308594 328.101562 294.207031 327.320312 C 291.382812 325.3125 290.71875 321.398438 292.722656 318.578125 C 303.765625 303.03125 300.101562 281.40625 284.550781 270.363281 C 269.007812 259.324219 247.371094 262.984375 236.324219 278.527344 C 234.316406 281.351562 230.40625 282.015625 227.578125 280.007812 C 224.757812 278.003906 224.09375 274.089844 226.097656 271.265625 C 241.148438 250.089844 270.628906 245.09375 291.8125 260.140625 C 313 275.183594 317.996094 304.65625 302.949219 325.839844 C 301.726562 327.558594 299.792969 328.476562 297.832031 328.476562 Z M 297.832031 328.476562 " fill-opacity="1" fill-rule="nonzero"/><g clip-path="url(#a0f0a9d167)"><path fill="#666666" d="M 266.097656 333.042969 C 264.839844 333.042969 263.570312 332.664062 262.46875 331.882812 C 259.648438 329.878906 258.984375 325.960938 260.988281 323.140625 C 264.542969 318.136719 265.9375 312.050781 264.910156 306.003906 C 263.886719 299.953125 260.566406 294.667969 255.5625 291.113281 C 250.558594 287.558594 244.46875 286.167969 238.421875 287.191406 C 232.371094 288.214844 227.078125 291.535156 223.523438 296.539062 C 221.519531 299.359375 217.605469 300.023438 214.78125 298.019531 C 211.957031 296.011719 211.296875 292.097656 213.300781 289.277344 C 218.796875 281.542969 226.976562 276.414062 236.328125 274.828125 C 245.679688 273.246094 255.09375 275.398438 262.828125 280.890625 C 270.5625 286.382812 275.695312 294.558594 277.277344 303.910156 C 278.863281 313.261719 276.710938 322.671875 271.210938 330.402344 C 269.992188 332.121094 268.0625 333.042969 266.097656 333.042969 Z M 266.097656 333.042969 " fill-opacity="1" fill-rule="nonzero"/></g><path fill="#666666" d="M 46.652344 218.382812 L 46.738281 218.707031 L 46.875 219.195312 L 47.152344 220.175781 L 47.695312 222.136719 C 48.085938 223.441406 48.46875 224.75 48.851562 226.054688 C 49.578125 228.691406 49.453125 232.648438 51.570312 233.777344 C 217.617188 322.226562 135.308594 214.804688 135.308594 214.804688 L 133.976562 215.199219 L 133.40625 215.371094 L 133.125 215.457031 C 133.015625 215.492188 133.078125 215.449219 133.039062 215.453125 C 132.988281 215.421875 132.9375 215.398438 132.894531 215.378906 C 132.796875 215.339844 132.710938 215.332031 132.625 215.347656 C 132.578125 215.355469 132.539062 215.371094 132.496094 215.390625 L 132.425781 215.429688 L 132.191406 215.421875 C 131.875 215.417969 131.566406 215.421875 131.238281 215.441406 C 130.929688 215.457031 130.609375 215.488281 130.292969 215.53125 C 129.976562 215.519531 129.664062 215.445312 129.34375 215.429688 C 126.832031 215.265625 124.289062 214.703125 121.949219 213.460938 C 119.597656 212.25 117.429688 210.582031 115.566406 208.601562 C 114.585938 207.664062 113.835938 206.484375 112.980469 205.421875 C 112.652344 204.804688 112.296875 204.214844 111.910156 203.652344 C 111.539062 203.070312 111.316406 202.378906 110.96875 201.789062 C 110.59375 201.214844 110.40625 200.507812 110.160156 199.855469 C 109.902344 199.199219 109.570312 198.589844 109.441406 197.855469 C 109.351562 197.507812 109.253906 197.164062 109.144531 196.824219 L 108.980469 196.3125 L 108.890625 196.0625 L 74.421875 192.84375 L 107.761719 103.753906 L 52.625 106.316406 L 104.875 58.96875 C 72.054688 42.125 2.957031 68.445312 15.054688 157.925781 C 20.003906 194.570312 46.652344 218.382812 46.652344 218.382812 Z M 46.652344 218.382812 " fill-opacity="1" fill-rule="nonzero"/><path fill="#666666" d="M 141.6875 274.976562 C 141.679688 274.976562 141.679688 274.976562 141.675781 274.976562 C 124.105469 274.972656 93.667969 263.308594 48.621094 239.3125 C 44.351562 237.035156 43.59375 232.328125 43.140625 229.515625 C 43.03125 228.839844 42.917969 228.136719 42.804688 227.722656 L 42.691406 227.339844 C 42.359375 226.207031 42.023438 225.070312 41.6875 223.9375 L 41.074219 221.738281 C 35.242188 216.050781 13.433594 192.765625 8.839844 158.765625 C 2.8125 114.167969 16.507812 87.695312 29.054688 73.339844 C 42.976562 57.414062 63.300781 47.910156 83.425781 47.910156 C 92.34375 47.910156 100.753906 49.804688 107.742188 53.390625 C 109.570312 54.332031 110.824219 56.109375 111.09375 58.152344 C 111.363281 60.191406 110.613281 62.234375 109.089844 63.613281 L 69.769531 99.246094 L 107.472656 97.492188 C 109.570312 97.390625 111.589844 98.359375 112.832031 100.0625 C 114.074219 101.765625 114.375 103.980469 113.636719 105.953125 L 83.171875 187.363281 L 109.476562 189.820312 C 111.882812 190.042969 113.945312 191.632812 114.78125 193.898438 L 114.871094 194.152344 C 114.902344 194.230469 114.929688 194.3125 114.957031 194.390625 L 115.121094 194.902344 C 115.269531 195.378906 115.398438 195.832031 115.519531 196.292969 C 115.542969 196.382812 115.5625 196.472656 115.582031 196.5625 C 115.617188 196.652344 115.660156 196.746094 115.699219 196.835938 C 115.808594 197.085938 115.914062 197.335938 116.011719 197.59375 C 116.105469 197.835938 116.1875 198.0625 116.265625 198.292969 C 116.304688 198.394531 116.335938 198.496094 116.375 198.597656 C 116.375 198.601562 116.378906 198.601562 116.378906 198.605469 C 116.652344 199.070312 116.890625 199.566406 117.117188 200.066406 C 117.15625 200.15625 117.195312 200.242188 117.238281 200.328125 C 117.589844 200.855469 117.925781 201.402344 118.238281 201.957031 C 118.429688 202.203125 118.617188 202.457031 118.804688 202.710938 C 119.222656 203.265625 119.613281 203.792969 119.90625 204.070312 C 119.984375 204.144531 120.058594 204.222656 120.132812 204.300781 C 121.53125 205.785156 123.15625 207.027344 124.828125 207.890625 C 126.222656 208.625 127.863281 209.046875 129.753906 209.167969 C 129.921875 209.179688 130.109375 209.195312 130.304688 209.21875 C 130.507812 209.203125 130.710938 209.1875 130.914062 209.175781 C 131.144531 209.164062 131.398438 209.152344 131.65625 209.148438 C 131.949219 209.105469 132.292969 209.074219 132.59375 209.066406 L 133.515625 208.792969 C 136.007812 208.050781 138.707031 208.921875 140.289062 210.988281 C 145.046875 217.199219 168.382812 249.035156 160.179688 265.640625 C 158.078125 269.902344 153.160156 274.976562 141.6875 274.976562 Z M 55.765625 228.90625 C 107.933594 256.59375 131.277344 262.433594 141.679688 262.4375 C 141.679688 262.4375 141.683594 262.4375 141.6875 262.4375 C 144.464844 262.4375 147.976562 262.03125 148.933594 260.089844 C 152.046875 253.785156 142.03125 234.828125 132.632812 221.722656 C 132.535156 221.714844 132.4375 221.707031 132.34375 221.695312 C 132.292969 221.695312 132.246094 221.695312 132.195312 221.695312 L 132.0625 221.6875 C 131.863281 221.683594 131.738281 221.691406 131.621094 221.695312 C 131.4375 221.707031 131.300781 221.71875 131.167969 221.738281 C 130.792969 221.792969 130.421875 221.808594 130.042969 221.792969 C 129.675781 221.777344 129.3125 221.738281 128.945312 221.6875 L 128.984375 221.6875 C 125.273438 221.445312 121.933594 220.542969 119.019531 219.003906 C 116.15625 217.527344 113.472656 215.5 111.105469 213.007812 C 110.121094 212.042969 109.363281 211.03125 108.75 210.210938 C 108.535156 209.921875 108.320312 209.632812 108.097656 209.351562 C 107.851562 209.046875 107.636719 208.722656 107.449219 208.375 C 107.230469 207.960938 106.996094 207.570312 106.734375 207.191406 C 106.695312 207.132812 106.65625 207.074219 106.621094 207.015625 C 106.183594 206.332031 105.898438 205.707031 105.691406 205.246094 C 105.648438 205.152344 105.609375 205.058594 105.5625 204.964844 C 104.972656 203.992188 104.648438 203.070312 104.429688 202.441406 L 104.230469 201.925781 L 73.839844 199.089844 C 71.894531 198.90625 70.148438 197.832031 69.109375 196.175781 C 68.070312 194.519531 67.863281 192.476562 68.550781 190.648438 L 98.558594 110.460938 L 52.917969 112.582031 C 50.242188 112.707031 47.835938 111.152344 46.828125 108.710938 C 45.816406 106.265625 46.453125 103.449219 48.414062 101.671875 L 92.871094 61.386719 C 89.882812 60.765625 86.710938 60.449219 83.425781 60.449219 C 66.867188 60.449219 50.074219 68.351562 38.5 81.589844 C 27.660156 93.988281 15.875 117.152344 21.269531 157.085938 C 25.859375 191.046875 50.582031 213.488281 50.832031 213.710938 C 51.746094 214.527344 52.402344 215.59375 52.71875 216.777344 L 53.738281 220.460938 C 54.046875 221.492188 54.386719 222.652344 54.726562 223.8125 L 54.871094 224.292969 C 55.195312 225.46875 55.371094 226.558594 55.527344 227.519531 C 55.589844 227.933594 55.675781 228.464844 55.765625 228.90625 Z M 55.765625 228.90625 " fill-opacity="1" fill-rule="nonzero"/><path fill="#666666" d="M 328.730469 218.382812 L 328.648438 218.707031 L 328.507812 219.195312 L 327.6875 222.136719 C 327.296875 223.441406 326.914062 224.75 326.53125 226.054688 C 325.8125 228.691406 325.941406 232.648438 323.816406 233.777344 C 157.765625 322.226562 240.078125 214.804688 240.078125 214.804688 L 241.410156 215.199219 L 241.972656 215.371094 L 242.257812 215.457031 C 242.367188 215.492188 242.308594 215.449219 242.339844 215.453125 C 242.398438 215.421875 242.445312 215.398438 242.488281 215.378906 C 242.589844 215.339844 242.671875 215.332031 242.761719 215.347656 C 242.800781 215.355469 242.847656 215.371094 242.886719 215.390625 L 242.953125 215.429688 L 243.1875 215.421875 C 243.503906 215.417969 243.816406 215.421875 244.136719 215.441406 C 244.453125 215.457031 244.773438 215.488281 245.085938 215.53125 C 245.402344 215.519531 245.71875 215.445312 246.035156 215.429688 C 248.550781 215.265625 251.09375 214.703125 253.4375 213.460938 C 255.785156 212.25 257.953125 210.582031 259.816406 208.601562 C 260.796875 207.664062 261.546875 206.484375 262.398438 205.421875 C 262.730469 204.804688 263.085938 204.214844 263.476562 203.652344 C 263.839844 203.070312 264.0625 202.378906 264.414062 201.789062 C 264.785156 201.214844 264.972656 200.507812 265.226562 199.855469 C 265.476562 199.199219 265.816406 198.589844 265.941406 197.855469 C 266.027344 197.507812 266.128906 197.164062 266.234375 196.824219 L 266.398438 196.3125 L 266.488281 196.0625 L 300.960938 192.84375 L 267.617188 103.753906 L 322.761719 106.316406 L 270.507812 58.96875 C 303.324219 42.125 372.417969 68.445312 360.324219 157.925781 C 355.382812 194.570312 328.730469 218.382812 328.730469 218.382812 Z M 328.730469 218.382812 " fill-opacity="1" fill-rule="nonzero"/><path fill="#666666" d="M 233.710938 274.976562 C 222.226562 274.976562 217.304688 269.898438 215.203125 265.636719 C 207.003906 249.027344 230.335938 217.199219 235.097656 210.988281 C 236.683594 208.921875 239.378906 208.050781 241.867188 208.792969 L 242.792969 209.066406 C 243.09375 209.074219 243.429688 209.105469 243.730469 209.152344 C 243.992188 209.15625 244.257812 209.164062 244.523438 209.179688 C 244.703125 209.191406 244.890625 209.203125 245.082031 209.21875 C 245.292969 209.195312 245.484375 209.179688 245.667969 209.167969 C 247.523438 209.046875 249.164062 208.625 250.503906 207.917969 C 252.226562 207.027344 253.847656 205.785156 255.246094 204.300781 C 255.324219 204.222656 255.398438 204.148438 255.476562 204.070312 C 255.765625 203.792969 256.160156 203.269531 256.574219 202.710938 C 256.765625 202.457031 256.953125 202.203125 257.144531 201.957031 C 257.460938 201.394531 257.800781 200.84375 258.15625 200.316406 C 258.171875 200.28125 258.210938 200.1875 258.25 200.097656 C 258.425781 199.710938 258.664062 199.183594 259.003906 198.613281 C 259.042969 198.511719 259.074219 198.40625 259.113281 198.300781 C 259.199219 198.058594 259.285156 197.816406 259.378906 197.578125 C 259.464844 197.347656 259.578125 197.078125 259.695312 196.804688 C 259.730469 196.726562 259.765625 196.644531 259.800781 196.5625 C 259.820312 196.480469 259.835938 196.394531 259.859375 196.3125 C 259.976562 195.851562 260.105469 195.398438 260.246094 194.949219 L 260.421875 194.402344 C 260.441406 194.335938 260.464844 194.269531 260.488281 194.203125 L 260.578125 193.953125 C 261.394531 191.65625 263.472656 190.042969 265.902344 189.816406 L 292.207031 187.363281 L 261.738281 105.949219 C 261.003906 103.976562 261.304688 101.765625 262.542969 100.0625 C 263.785156 98.359375 265.789062 97.386719 267.90625 97.488281 L 305.613281 99.242188 L 266.292969 63.613281 C 264.769531 62.230469 264.019531 60.1875 264.285156 58.148438 C 264.554688 56.109375 265.808594 54.328125 267.640625 53.386719 C 274.628906 49.800781 283.039062 47.90625 291.957031 47.90625 C 312.078125 47.90625 332.402344 57.414062 346.324219 73.335938 C 358.871094 87.691406 372.566406 114.164062 366.539062 158.761719 C 361.949219 192.757812 340.140625 216.042969 334.308594 221.734375 L 333.726562 223.820312 C 333.390625 224.941406 333.09375 225.953125 332.796875 226.96875 L 332.550781 227.816406 C 332.46875 228.117188 332.355469 228.816406 332.25 229.488281 C 331.796875 232.3125 331.042969 237.035156 326.757812 239.308594 C 281.710938 263.308594 251.269531 274.976562 233.710938 274.976562 Z M 242.75 221.722656 C 232.261719 236.28125 223.578125 254.269531 226.453125 260.085938 C 227.414062 262.03125 230.929688 262.4375 233.710938 262.4375 C 244.105469 262.4375 267.441406 256.601562 319.625 228.90625 C 319.714844 228.460938 319.800781 227.925781 319.867188 227.511719 C 320.019531 226.554688 320.191406 225.472656 320.484375 224.402344 L 320.761719 223.445312 C 321.066406 222.410156 321.371094 221.375 321.679688 220.339844 L 322.648438 216.851562 C 322.953125 215.636719 323.617188 214.542969 324.550781 213.710938 C 324.792969 213.492188 349.550781 190.875 354.109375 157.085938 C 359.507812 117.152344 347.71875 93.988281 336.882812 81.589844 C 325.304688 68.351562 308.511719 60.449219 291.960938 60.449219 C 288.671875 60.449219 285.5 60.765625 282.515625 61.386719 L 326.972656 101.671875 C 328.933594 103.449219 329.566406 106.265625 328.558594 108.710938 C 327.546875 111.152344 325.140625 112.707031 322.46875 112.582031 L 276.824219 110.460938 L 306.835938 190.648438 C 307.519531 192.476562 307.3125 194.519531 306.273438 196.175781 C 305.238281 197.832031 303.488281 198.90625 301.542969 199.089844 L 271.152344 201.925781 C 271.128906 201.976562 271.105469 202.03125 271.085938 202.085938 L 270.941406 202.484375 C 270.71875 203.109375 270.390625 204.039062 269.796875 205.007812 C 269.769531 205.0625 269.726562 205.167969 269.679688 205.273438 C 269.480469 205.714844 269.207031 206.316406 268.796875 206.972656 C 268.742188 207.058594 268.6875 207.144531 268.632812 207.226562 C 268.378906 207.589844 268.152344 207.964844 267.9375 208.367188 C 267.75 208.714844 267.53125 209.046875 267.285156 209.355469 C 267.058594 209.636719 266.84375 209.925781 266.625 210.21875 C 266.015625 211.035156 265.261719 212.046875 264.277344 213.007812 C 261.910156 215.5 259.230469 217.527344 256.3125 219.035156 C 253.464844 220.539062 250.152344 221.4375 246.507812 221.683594 C 246.054688 221.742188 245.695312 221.78125 245.339844 221.796875 C 244.960938 221.8125 244.582031 221.792969 244.207031 221.738281 C 244.078125 221.722656 243.945312 221.710938 243.8125 221.703125 C 243.632812 221.691406 243.511719 221.691406 243.394531 221.691406 L 243.1875 221.695312 C 243.140625 221.699219 243.089844 221.699219 243.039062 221.699219 C 242.941406 221.707031 242.847656 221.714844 242.75 221.722656 Z M 242.75 221.722656 " fill-opacity="1" fill-rule="nonzero"/><path fill="#666666" d="M 285.628906 244.007812 C 285.628906 245.257812 285.589844 246.503906 285.507812 247.753906 C 285.429688 249 285.3125 250.246094 285.15625 251.492188 C 285 252.734375 284.800781 253.972656 284.566406 255.210938 C 284.332031 256.445312 284.058594 257.675781 283.746094 258.902344 C 283.433594 260.125 283.082031 261.34375 282.691406 262.558594 C 282.304688 263.769531 281.875 264.972656 281.410156 266.167969 C 280.945312 267.363281 280.441406 268.550781 279.902344 269.726562 C 279.363281 270.902344 278.785156 272.066406 278.171875 273.222656 C 277.558594 274.375 276.910156 275.519531 276.226562 276.648438 C 275.539062 277.777344 274.820312 278.894531 274.0625 279.996094 C 273.308594 281.097656 272.519531 282.183594 271.695312 283.253906 C 270.871094 284.328125 270.011719 285.382812 269.121094 286.421875 C 268.230469 287.460938 267.308594 288.480469 266.355469 289.484375 C 265.398438 290.488281 264.414062 291.472656 263.398438 292.4375 C 262.378906 293.40625 261.335938 294.351562 260.257812 295.277344 C 259.179688 296.203125 258.078125 297.105469 256.941406 297.988281 C 255.808594 298.875 254.648438 299.734375 253.460938 300.574219 C 252.273438 301.414062 251.0625 302.226562 249.820312 303.019531 C 248.582031 303.8125 247.320312 304.582031 246.03125 305.324219 C 244.746094 306.070312 243.433594 306.789062 242.101562 307.484375 C 240.769531 308.179688 239.417969 308.847656 238.042969 309.488281 C 236.667969 310.128906 235.273438 310.746094 233.859375 311.335938 C 232.445312 311.925781 231.015625 312.484375 229.566406 313.019531 C 228.117188 313.554688 226.652344 314.058594 225.171875 314.539062 C 223.691406 315.015625 222.195312 315.464844 220.6875 315.886719 C 219.175781 316.308594 217.65625 316.699219 216.121094 317.0625 C 214.589844 317.425781 213.042969 317.757812 211.488281 318.0625 C 209.933594 318.367188 208.371094 318.640625 206.800781 318.882812 C 205.226562 319.125 203.648438 319.339844 202.0625 319.523438 C 200.476562 319.707031 198.886719 319.859375 197.292969 319.980469 C 195.699219 320.105469 194.097656 320.195312 192.5 320.257812 C 190.898438 320.320312 189.296875 320.351562 187.691406 320.351562 C 186.089844 320.351562 184.488281 320.320312 182.886719 320.257812 C 181.285156 320.195312 179.6875 320.105469 178.09375 319.980469 C 176.5 319.859375 174.910156 319.707031 173.324219 319.523438 C 171.738281 319.339844 170.160156 319.125 168.585938 318.882812 C 167.015625 318.640625 165.453125 318.367188 163.898438 318.0625 C 162.34375 317.757812 160.796875 317.425781 159.265625 317.0625 C 157.730469 316.699219 156.210938 316.308594 154.699219 315.886719 C 153.191406 315.464844 151.695312 315.015625 150.214844 314.539062 C 148.734375 314.058594 147.269531 313.554688 145.820312 313.019531 C 144.371094 312.484375 142.941406 311.925781 141.527344 311.335938 C 140.113281 310.746094 138.71875 310.128906 137.34375 309.488281 C 135.96875 308.847656 134.617188 308.179688 133.285156 307.484375 C 131.949219 306.789062 130.640625 306.070312 129.355469 305.324219 C 128.066406 304.582031 126.804688 303.8125 125.5625 303.019531 C 124.324219 302.226562 123.113281 301.414062 121.925781 300.574219 C 120.738281 299.734375 119.578125 298.875 118.441406 297.988281 C 117.308594 297.105469 116.203125 296.203125 115.128906 295.277344 C 114.050781 294.351562 113.003906 293.40625 111.988281 292.4375 C 110.972656 291.472656 109.988281 290.488281 109.03125 289.484375 C 108.078125 288.480469 107.152344 287.460938 106.265625 286.421875 C 105.375 285.382812 104.515625 284.328125 103.691406 283.253906 C 102.867188 282.183594 102.078125 281.097656 101.324219 279.996094 C 100.566406 278.894531 99.847656 277.777344 99.160156 276.648438 C 98.476562 275.519531 97.828125 274.375 97.214844 273.222656 C 96.601562 272.066406 96.023438 270.902344 95.484375 269.726562 C 94.945312 268.550781 94.441406 267.363281 93.976562 266.167969 C 93.511719 264.972656 93.082031 263.769531 92.695312 262.558594 C 92.304688 261.34375 91.953125 260.125 91.640625 258.902344 C 91.328125 257.675781 91.054688 256.445312 90.820312 255.210938 C 90.582031 253.972656 90.386719 252.734375 90.230469 251.492188 C 90.074219 250.246094 89.957031 249 89.875 247.753906 C 89.796875 246.503906 89.757812 245.257812 89.757812 244.007812 C 89.757812 242.757812 89.796875 241.507812 89.875 240.261719 C 89.957031 239.015625 90.074219 237.769531 90.230469 236.523438 C 90.386719 235.28125 90.582031 234.042969 90.820312 232.804688 C 91.054688 231.570312 91.328125 230.339844 91.640625 229.113281 C 91.953125 227.886719 92.304688 226.671875 92.695312 225.457031 C 93.082031 224.246094 93.511719 223.042969 93.976562 221.847656 C 94.441406 220.652344 94.945312 219.464844 95.484375 218.289062 C 96.023438 217.113281 96.601562 215.945312 97.214844 214.792969 C 97.828125 213.636719 98.476562 212.496094 99.160156 211.367188 C 99.847656 210.238281 100.566406 209.121094 101.324219 208.019531 C 102.078125 206.917969 102.867188 205.832031 103.691406 204.761719 C 104.515625 203.6875 105.375 202.632812 106.265625 201.59375 C 107.152344 200.554688 108.078125 199.535156 109.03125 198.53125 C 109.988281 197.527344 110.972656 196.542969 111.988281 195.578125 C 113.003906 194.609375 114.050781 193.664062 115.128906 192.738281 C 116.203125 191.8125 117.308594 190.910156 118.441406 190.027344 C 119.578125 189.140625 120.738281 188.28125 121.925781 187.441406 C 123.113281 186.601562 124.324219 185.785156 125.5625 184.996094 C 126.804688 184.203125 128.066406 183.433594 129.355469 182.6875 C 130.640625 181.945312 131.949219 181.226562 133.285156 180.53125 C 134.617188 179.835938 135.96875 179.167969 137.34375 178.527344 C 138.71875 177.882812 140.113281 177.269531 141.527344 176.679688 C 142.941406 176.089844 144.371094 175.53125 145.820312 174.996094 C 147.269531 174.460938 148.734375 173.953125 150.214844 173.476562 C 151.695312 173 153.191406 172.550781 154.699219 172.128906 C 156.210938 171.707031 157.730469 171.316406 159.265625 170.953125 C 160.796875 170.589844 162.34375 170.257812 163.898438 169.953125 C 165.453125 169.648438 167.015625 169.375 168.585938 169.132812 C 170.160156 168.886719 171.738281 168.675781 173.324219 168.492188 C 174.910156 168.308594 176.5 168.15625 178.09375 168.03125 C 179.6875 167.910156 181.285156 167.820312 182.886719 167.757812 C 184.488281 167.695312 186.089844 167.664062 187.691406 167.664062 C 189.296875 167.664062 190.898438 167.695312 192.5 167.757812 C 194.097656 167.820312 195.699219 167.910156 197.292969 168.03125 C 198.886719 168.15625 200.476562 168.308594 202.0625 168.492188 C 203.648438 168.675781 205.226562 168.886719 206.800781 169.132812 C 208.371094 169.375 209.933594 169.648438 211.488281 169.953125 C 213.042969 170.257812 214.589844 170.589844 216.121094 170.953125 C 217.65625 171.316406 219.175781 171.707031 220.6875 172.128906 C 222.195312 172.550781 223.691406 173 225.171875 173.476562 C 226.652344 173.953125 228.117188 174.460938 229.566406 174.996094 C 231.015625 175.53125 232.445312 176.089844 233.859375 176.679688 C 235.273438 177.269531 236.667969 177.882812 238.042969 178.527344 C 239.417969 179.167969 240.769531 179.835938 242.101562 180.53125 C 243.433594 181.226562 244.746094 181.945312 246.03125 182.6875 C 247.320312 183.433594 248.582031 184.203125 249.820312 184.996094 C 251.0625 185.785156 252.273438 186.601562 253.460938 187.441406 C 254.648438 188.28125 255.808594 189.140625 256.941406 190.027344 C 258.078125 190.910156 259.179688 191.8125 260.257812 192.738281 C 261.335938 193.664062 262.378906 194.609375 263.398438 195.578125 C 264.414062 196.542969 265.398438 197.527344 266.355469 198.53125 C 267.308594 199.535156 268.230469 200.554688 269.121094 201.59375 C 270.011719 202.632812 270.871094 203.6875 271.695312 204.761719 C 272.519531 205.832031 273.308594 206.917969 274.0625 208.019531 C 274.820312 209.121094 275.539062 210.238281 276.226562 211.367188 C 276.910156 212.496094 277.558594 213.636719 278.171875 214.792969 C 278.785156 215.945312 279.363281 217.113281 279.902344 218.289062 C 280.441406 219.464844 280.945312 220.652344 281.410156 221.847656 C 281.875 223.042969 282.304688 224.246094 282.691406 225.457031 C 283.082031 226.671875 283.433594 227.886719 283.746094 229.113281 C 284.058594 230.339844 284.332031 231.570312 284.566406 232.804688 C 284.800781 234.042969 285 235.28125 285.15625 236.523438 C 285.3125 237.769531 285.429688 239.015625 285.507812 240.261719 C 285.589844 241.507812 285.628906 242.757812 285.628906 244.007812 Z M 285.628906 244.007812 " fill-opacity="1" fill-rule="nonzero"/><path fill="#666666" d="M 187.691406 326.621094 C 130.234375 326.621094 83.488281 289.558594 83.488281 244.007812 C 83.488281 198.457031 130.234375 161.394531 187.691406 161.394531 C 245.152344 161.394531 291.898438 198.457031 291.898438 244.007812 C 291.898438 289.558594 245.152344 326.621094 187.691406 326.621094 Z M 187.691406 173.933594 C 137.148438 173.933594 96.03125 205.371094 96.03125 244.007812 C 96.03125 282.644531 137.148438 314.078125 187.691406 314.078125 C 238.234375 314.078125 279.355469 282.644531 279.355469 244.007812 C 279.355469 205.371094 238.234375 173.933594 187.691406 173.933594 Z M 187.691406 173.933594 " fill-opacity="1" fill-rule="nonzero"/><path fill="#666666" d="M 169.582031 206.121094 L 151.921875 206.121094 C 148.457031 206.121094 145.652344 203.3125 145.652344 199.851562 C 145.652344 196.386719 148.457031 193.582031 151.921875 193.582031 L 169.582031 193.582031 C 173.046875 193.582031 175.855469 196.386719 175.855469 199.851562 C 175.855469 203.3125 173.046875 206.121094 169.582031 206.121094 Z M 169.582031 206.121094 " fill-opacity="1" fill-rule="nonzero"/><path fill="#666666" d="M 223.460938 206.121094 L 205.796875 206.121094 C 202.335938 206.121094 199.527344 203.3125 199.527344 199.851562 C 199.527344 196.386719 202.335938 193.582031 205.796875 193.582031 L 223.460938 193.582031 C 226.921875 193.582031 229.730469 196.386719 229.730469 199.851562 C 229.730469 203.3125 226.921875 206.121094 223.460938 206.121094 Z M 223.460938 206.121094 " fill-opacity="1" fill-rule="nonzero"/><path fill="#666666" d="M 145.699219 281.578125 C 145.699219 282.078125 145.652344 282.570312 145.550781 283.0625 C 145.453125 283.550781 145.308594 284.027344 145.117188 284.488281 C 144.925781 284.949219 144.691406 285.386719 144.410156 285.800781 C 144.132812 286.21875 143.816406 286.601562 143.460938 286.953125 C 143.105469 287.308594 142.722656 287.625 142.304688 287.902344 C 141.886719 288.179688 141.445312 288.414062 140.984375 288.601562 C 140.519531 288.792969 140.042969 288.9375 139.550781 289.035156 C 139.058594 289.132812 138.5625 289.183594 138.058594 289.183594 C 137.558594 289.183594 137.0625 289.132812 136.570312 289.035156 C 136.078125 288.9375 135.601562 288.792969 135.136719 288.601562 C 134.671875 288.414062 134.234375 288.179688 133.816406 287.902344 C 133.398438 287.625 133.011719 287.308594 132.660156 286.953125 C 132.304688 286.601562 131.988281 286.21875 131.710938 285.800781 C 131.429688 285.386719 131.195312 284.949219 131.003906 284.488281 C 130.8125 284.027344 130.667969 283.550781 130.570312 283.0625 C 130.46875 282.570312 130.421875 282.078125 130.421875 281.578125 C 130.421875 281.078125 130.46875 280.582031 130.570312 280.09375 C 130.667969 279.605469 130.8125 279.128906 131.003906 278.667969 C 131.195312 278.207031 131.429688 277.769531 131.710938 277.351562 C 131.988281 276.9375 132.304688 276.554688 132.660156 276.199219 C 133.011719 275.847656 133.398438 275.53125 133.816406 275.253906 C 134.234375 274.976562 134.671875 274.742188 135.136719 274.550781 C 135.601562 274.359375 136.078125 274.214844 136.570312 274.117188 C 137.0625 274.023438 137.558594 273.972656 138.058594 273.972656 C 138.5625 273.972656 139.058594 274.023438 139.550781 274.117188 C 140.042969 274.214844 140.519531 274.359375 140.984375 274.550781 C 141.445312 274.742188 141.886719 274.976562 142.304688 275.253906 C 142.722656 275.53125 143.105469 275.847656 143.460938 276.199219 C 143.816406 276.554688 144.132812 276.9375 144.410156 277.351562 C 144.691406 277.769531 144.925781 278.207031 145.117188 278.667969 C 145.308594 279.128906 145.453125 279.605469 145.550781 280.09375 C 145.652344 280.582031 145.699219 281.078125 145.699219 281.578125 Z M 145.699219 281.578125 " fill-opacity="1" fill-rule="nonzero"/><path fill="#666666" d="M 130.421875 269.382812 C 130.421875 269.882812 130.371094 270.375 130.273438 270.867188 C 130.175781 271.355469 130.03125 271.832031 129.839844 272.292969 C 129.648438 272.753906 129.410156 273.191406 129.132812 273.605469 C 128.855469 274.019531 128.539062 274.40625 128.183594 274.757812 C 127.828125 275.109375 127.441406 275.425781 127.023438 275.703125 C 126.609375 275.980469 126.167969 276.214844 125.703125 276.40625 C 125.242188 276.597656 124.761719 276.742188 124.269531 276.839844 C 123.777344 276.9375 123.28125 276.984375 122.78125 276.984375 C 122.277344 276.984375 121.78125 276.9375 121.289062 276.839844 C 120.796875 276.742188 120.320312 276.597656 119.855469 276.40625 C 119.394531 276.214844 118.953125 275.980469 118.535156 275.703125 C 118.117188 275.425781 117.730469 275.109375 117.378906 274.757812 C 117.023438 274.40625 116.707031 274.019531 116.425781 273.605469 C 116.148438 273.191406 115.914062 272.753906 115.722656 272.292969 C 115.527344 271.832031 115.382812 271.355469 115.285156 270.867188 C 115.1875 270.375 115.140625 269.882812 115.140625 269.382812 C 115.140625 268.882812 115.1875 268.386719 115.285156 267.898438 C 115.382812 267.410156 115.527344 266.933594 115.722656 266.472656 C 115.914062 266.011719 116.148438 265.574219 116.425781 265.15625 C 116.707031 264.742188 117.023438 264.359375 117.378906 264.007812 C 117.730469 263.652344 118.117188 263.335938 118.535156 263.058594 C 118.953125 262.78125 119.394531 262.546875 119.855469 262.359375 C 120.320312 262.167969 120.796875 262.023438 121.289062 261.925781 C 121.78125 261.828125 122.277344 261.777344 122.78125 261.777344 C 123.28125 261.777344 123.777344 261.828125 124.269531 261.925781 C 124.761719 262.023438 125.242188 262.167969 125.703125 262.359375 C 126.167969 262.546875 126.609375 262.78125 127.023438 263.058594 C 127.441406 263.335938 127.828125 263.652344 128.183594 264.007812 C 128.539062 264.359375 128.855469 264.742188 129.132812 265.15625 C 129.410156 265.574219 129.648438 266.011719 129.839844 266.472656 C 130.03125 266.933594 130.175781 267.410156 130.273438 267.898438 C 130.371094 268.386719 130.421875 268.882812 130.421875 269.382812 Z M 130.421875 269.382812 " fill-opacity="1" fill-rule="nonzero"/><path fill="#666666" d="M 143.734375 255.839844 C 143.734375 251.640625 140.3125 248.234375 136.09375 248.234375 C 131.871094 248.234375 128.453125 251.640625 128.453125 255.839844 C 128.453125 260.039062 131.871094 263.445312 136.09375 263.445312 C 140.3125 263.445312 143.734375 260.039062 143.734375 255.839844 Z M 143.734375 255.839844 " fill-opacity="1" fill-rule="nonzero"/></svg>